HIERARCHY
ROOT hip
{
  OFFSET 0 0 0
  CHANNELS 6 Xposition Yposition Zposition Zrotation Yrotation Xrotation
  JOINT abdomen
  {
    OFFSET 0 20.6881 -0.73152
    CHANNELS 3 Zrotation Xrotation Yrotation
    JOINT chest
    {
      OFFSET 0 11.7043 -0.48768
      CHANNELS 3 Zrotation Xrotation Yrotation
      JOINT neck
      {
        OFFSET 0 22.1894 -2.19456
        CHANNELS 3 Zrotation Xrotation Yrotation
        JOINT head
        {
          OFFSET -0.24384 7.07133 1.2192
          CHANNELS 3 Zrotation Xrotation Yrotation
          JOINT leftEye
          {
            OFFSET 4.14528 8.04674 8.04672
            CHANNELS 3 Zrotation Xrotation Yrotation
            End Site
            {
              OFFSET 1 0 0
            }
          }
          JOINT rightEye
          {
            OFFSET -3.6576 8.04674 8.04672
            CHANNELS 3 Zrotation Xrotation Yrotation
            End Site
            {
              OFFSET 1 0 0
            }
          }
        }
      }
      JOINT rCollar
      {
        OFFSET -2.68224 19.2634 -4.8768
        CHANNELS 3 Zrotation Xrotation Yrotation
        JOINT rShldr
        {
          OFFSET -8.77824 -1.95073 1.46304
          CHANNELS 3 Zrotation Xrotation Yrotation
          JOINT rForeArm
          {
            OFFSET -28.1742 -1.7115 0.48768
            CHANNELS 3 Zrotation Xrotation Yrotation
            JOINT rHand
            {
              OFFSET -22.5879 0.773209 7.07136
              CHANNELS 3 Zrotation Xrotation Yrotation
              JOINT rThumb1
              {
                OFFSET -1.2192 -0.487915 3.41376
                CHANNELS 3 Zrotation Xrotation Yrotation
                JOINT rThumb2
                {
                  OFFSET -3.37035 -0.52449 3.41376
                  CHANNELS 3 Zrotation Xrotation Yrotation
                  End Site
                  {
                    OFFSET -1.78271 -1.18214 1.43049
                  }
                }
              }
              JOINT rIndex1
              {
                OFFSET -7.75947 0.938293 5.60832
                CHANNELS 3 Zrotation Xrotation Yrotation
                JOINT rIndex2
                {
                  OFFSET -2.54057 -0.884171 1.56538
                  CHANNELS 3 Zrotation Xrotation Yrotation
                  End Site
                  {
                    OFFSET -1.62519 -0.234802 1.16502
                  }
                }
              }
              JOINT rMid1
              {
                OFFSET -8.24714 1.18213 3.41376
                CHANNELS 3 Zrotation Xrotation Yrotation
                JOINT rMid2
                {
                  OFFSET -3.10165 -0.590103 1.0647
                  CHANNELS 3 Zrotation Xrotation Yrotation
                  End Site
                  {
                    OFFSET -2.48547 -0.328903 0.83742
                  }
                }
              }
              JOINT rRing1
              {
                OFFSET -8.82822 0.546677 1.51678
                CHANNELS 3 Zrotation Xrotation Yrotation
                JOINT rRing2
                {
                  OFFSET -2.60934 -0.819778 -0.0198488
                  CHANNELS 3 Zrotation Xrotation Yrotation
                  End Site
                  {
                    OFFSET -2.33842 -0.294052 0.168128
                  }
                }
              }
              JOINT rPinky1
              {
                OFFSET -8.27202 -0.0477905 -0.4584
                CHANNELS 3 Zrotation Xrotation Yrotation
                JOINT rPinky2
                {
                  OFFSET -1.82734 -0.647385 -0.700984
                  CHANNELS 3 Zrotation Xrotation Yrotation
                  End Site
                  {
                    OFFSET -1.69225 -0.51767 -0.607171
                  }
                }
              }
            }
          }
        }
      }
      JOINT lCollar
      {
        OFFSET 2.68224 19.2634 -4.8768
        CHANNELS 3 Zrotation Xrotation Yrotation
        JOINT lShldr
        {
          OFFSET 8.77824 -1.95073 1.46304
          CHANNELS 3 Zrotation Xrotation Yrotation
          JOINT lForeArm
          {
            OFFSET 28.1742 -1.7115 0.48768
            CHANNELS 3 Zrotation Xrotation Yrotation
            JOINT lHand
            {
              OFFSET 22.5879 0.773209 7.07136
              CHANNELS 3 Zrotation Xrotation Yrotation
              JOINT lThumb1
              {
                OFFSET 1.2192 -0.487915 3.41376
                CHANNELS 3 Zrotation Xrotation Yrotation
                JOINT lThumb2
                {
                  OFFSET 3.37035 -0.52449 3.41376
                  CHANNELS 3 Zrotation Xrotation Yrotation
                  End Site
                  {
                    OFFSET 1.78271 -1.18214 1.43049
                  }
                }
              }
              JOINT lIndex1
              {
                OFFSET 7.75947 0.938293 5.60832
                CHANNELS 3 Zrotation Xrotation Yrotation
                JOINT lIndex2
                {
                  OFFSET 2.54057 -0.884171 1.56538
                  CHANNELS 3 Zrotation Xrotation Yrotation
                  End Site
                  {
                    OFFSET 1.62519 -0.234802 1.16502
                  }
                }
              }
              JOINT lMid1
              {
                OFFSET 8.24714 1.18213 3.41376
                CHANNELS 3 Zrotation Xrotation Yrotation
                JOINT lMid2
                {
                  OFFSET 3.10165 -0.590103 1.0647
                  CHANNELS 3 Zrotation Xrotation Yrotation
                  End Site
                  {
                    OFFSET 2.48547 -0.328903 0.83742
                  }
                }
              }
              JOINT lRing1
              {
                OFFSET 8.82822 0.546677 1.51678
                CHANNELS 3 Zrotation Xrotation Yrotation
                JOINT lRing2
                {
                  OFFSET 2.60934 -0.819778 -0.0198488
                  CHANNELS 3 Zrotation Xrotation Yrotation
                  End Site
                  {
                    OFFSET 2.33842 -0.294052 0.168128
                  }
                }
              }
              JOINT lPinky1
              {
                OFFSET 8.27202 -0.0477905 -0.4584
                CHANNELS 3 Zrotation Xrotation Yrotation
                JOINT lPinky2
                {
                  OFFSET 1.82734 -0.647385 -0.700984
                  CHANNELS 3 Zrotation Xrotation Yrotation
                  End Site
                  {
                    OFFSET 1.69225 -0.51767 -0.607171
                  }
                }
              }
            }
          }
        }
      }
    }
  }
  JOINT rButtock
  {
    OFFSET -8.77824 4.35084 1.2192
    CHANNELS 3 Zrotation Xrotation Yrotation
    JOINT rThigh
    {
      OFFSET 0 -1.70687 -2.19456
      CHANNELS 3 Zrotation Xrotation Yrotation
      JOINT rShin
      {
        OFFSET 0 -36.8199 0.73152
        CHANNELS 3 Zrotation Xrotation Yrotation
        JOINT rFoot
        {
          OFFSET 0.73152 -45.1104 -5.12064
          CHANNELS 3 Zrotation Xrotation Yrotation
          End Site
          {
            OFFSET -1.1221 -3.69964 12.103
          }
        }
      }
    }
  }
  JOINT lButtock
  {
    OFFSET 8.77824 4.35084 1.2192
    CHANNELS 3 Zrotation Xrotation Yrotation
    JOINT lThigh
    {
      OFFSET 0 -1.70687 -2.19456
      CHANNELS 3 Zrotation Xrotation Yrotation
      JOINT lShin
      {
        OFFSET 0 -36.8199 0.73152
        CHANNELS 3 Zrotation Xrotation Yrotation
        JOINT lFoot
        {
          OFFSET -0.73152 -45.1104 -5.12064
          CHANNELS 3 Zrotation Xrotation Yrotation
          End Site
          {
            OFFSET 1.1221 -3.69964 12.103
          }
        }
      }
    }
  }
}
MOTION
Frames:	5
Frame Time:	0.00833333
1.20114 80.6491 96.4989 -177.49 -29.1968 -159.022 5.55483 -21.5096 4.45404 0.980008 -3.33542 0.331895 -3.36588 2.24723 0.0240513 -3.0613 11.6776 -1.84566 -0.0 0.0 0.0 -0.0 0.0 0.0 -4.50305e-14 2.60804e-13 -4.93509e-13 124.908 68.9531 -58.82 -16.8881 -9.53912 31.5711 -2.37376 -39.3875 -6.62598 9.11743e-11 -1.54816e-10 8.03028e-10 1.17364e-10 -2.35976e-10 1.39766e-09 9.11827e-11 -1.54821e-10 8.03016e-10 7.73091 5.47488 0.417314 9.11754e-11 -1.54822e-10 8.03023e-10 2.90554 0.965183 0.102902 9.11867e-11 -1.54823e-10 8.03024e-10 10.2786 0.731801 0.0259123 9.11649e-11 -1.54821e-10 8.03033e-10 2.22167 -0.733487 -0.20892 -4.51962e-14 2.60796e-13 -4.93778e-13 -106.651 52.7789 42.2763 18.4684 -11.1993 -35.0797 0.150577 -10.9944 1.5646 -1.67933e-09 -1.70543e-09 3.81427e-10 -2.90496e-09 -2.95192e-09 6.50442e-10 -1.67933e-09 -1.70542e-09 3.81449e-10 -7.73091 5.47488 -0.417314 -1.67932e-09 -1.70543e-09 3.81438e-10 -2.90554 0.965183 -0.102902 -1.67933e-09 -1.70543e-09 3.81439e-10 -10.2786 0.731801 -0.0259123 -1.67933e-09 -1.70542e-09 3.81443e-10 -2.22167 -0.733487 0.20892 -2.03217e-16 0.0 -3.88251e-19 18.5404 -35.8508 5.56274 -0.095036 29.1853 0.673725 -23.0405 -28.984 -37.7115 2.03217e-16 0.0 3.88251e-19 12.5513 -25.1974 35.5967 0.968044 54.4046 -0.356555 -21.2684 29.0246 43.8493
1.17741 80.6707 96.5948 -177.293 -29.4766 -159.002 5.68913 -21.6138 4.33036 0.877552 -3.44371 0.274788 -3.1569 2.55517 0.0604726 -3.11054 11.696 -1.89034 -0.0 0.0 0.0 -0.0 0.0 0.0 7.3295e-14 6.68553e-14 1.40391e-14 125.396 68.6989 -59.2801 -16.9255 -9.57617 31.6522 -2.32701 -39.0754 -6.55225 -6.72937e-10 6.57003e-11 1.3619e-10 -1.17044e-09 1.24236e-10 2.15706e-10 -6.7293e-10 6.56977e-11 1.36179e-10 7.73091 5.47488 0.417314 -6.72936e-10 6.56976e-11 1.36185e-10 2.90554 0.965183 0.102902 -6.72925e-10 6.5697e-11 1.36187e-10 10.2786 0.731801 0.0259123 -6.72944e-10 6.56982e-11 1.36195e-10 2.22167 -0.733487 -0.20892 7.31054e-14 6.68506e-14 1.37348e-14 -106.9 52.7504 42.6134 18.4895 -11.2228 -35.1279 0.148686 -10.9265 1.5547 -9.93681e-10 -1.19755e-10 -1.10436e-10 -1.71417e-09 -2.05884e-10 -1.98741e-10 -9.93686e-10 -1.19752e-10 -1.10416e-10 -7.73091 5.47488 -0.417314 -9.93681e-10 -1.19756e-10 -1.10425e-10 -2.90554 0.965183 -0.102902 -9.9369e-10 -1.19756e-10 -1.10426e-10 -10.2786 0.731801 -0.0259123 -9.93683e-10 -1.19755e-10 -1.10423e-10 -2.22167 -0.733487 0.20892 -2.03217e-16 0.0 -3.88251e-19 18.5011 -35.8726 5.21724 -0.0946582 29.148 0.669047 -22.9639 -29.1409 -37.4961 2.03217e-16 0.0 3.88251e-19 12.6271 -25.2654 35.4654 0.969382 54.4736 -0.369081 -20.9521 29.4154 42.939
1.39666 80.5675 96.5394 -176.947 -28.7603 -159.372 5.85596 -21.6874 4.21596 0.763008 -3.55516 0.219889 -2.96136 2.85247 0.0973065 -3.13857 11.7262 -1.93362 -0.0 0.0 0.0 -0.0 0.0 0.0 1.90483e-13 -1.36468e-13 5.54387e-13 125.876 68.4298 -59.7306 -16.963 -9.61351 31.7334 -2.27577 -38.725 -6.47052 -1.50582e-09 2.91557e-10 -5.02292e-10 -2.57679e-09 4.92083e-10 -9.19852e-10 -1.50582e-09 2.91558e-10 -5.023e-10 7.73091 5.47488 0.417314 -1.50583e-09 2.91558e-10 -5.02296e-10 2.90554 0.965183 0.102902 -1.50581e-09 2.91558e-10 -5.02293e-10 10.2786 0.731801 0.0259123 -1.50583e-09 2.91559e-10 -5.02286e-10 2.22167 -0.733487 -0.20892 1.90276e-13 -1.36469e-13 5.5405e-13 -107.133 52.6992 42.9391 18.5156 -11.252 -35.1877 0.146674 -10.8532 1.54402 -1.48812e-10 1.65693e-09 -6.7669e-10 -2.47452e-10 2.87126e-09 -1.17592e-09 -1.4882e-10 1.65694e-09 -6.76672e-10 -7.73091 5.47488 -0.417314 -1.48813e-10 1.65693e-09 -6.76679e-10 -2.90554 0.965183 -0.102902 -1.48826e-10 1.65693e-09 -6.76681e-10 -10.2786 0.731801 -0.0259123 -1.48815e-10 1.65693e-09 -6.7668e-10 -2.22167 -0.733487 0.20892 -2.03217e-16 0.0 -3.88251e-19 18.4568 -35.858 4.81527 -0.0943643 29.1049 0.663685 -22.841 -29.2729 -37.2369 2.03217e-16 0.0 3.88251e-19 12.7264 -25.2844 35.3628 0.969184 54.5361 -0.386856 -20.4546 29.5298 42.0583
1.29197 80.6328 96.6059 -177.286 -29.4799 -159.095 5.97901 -21.6736 4.16592 0.679278 -3.62007 0.194818 -2.87364 3.00769 0.115058 -3.05828 11.8447 -1.9812 -0.0 0.0 0.0 -0.0 0.0 0.0 2.35796e-13 -2.37152e-13 8.81212e-13 126.298 68.2898 -60.1347 -17.0078 -9.65827 31.8303 -2.23801 -38.4615 -6.4097 -1.96289e-09 4.22295e-10 -8.46257e-10 -3.3476e-09 7.02976e-10 -1.53243e-09 -1.96289e-09 4.22297e-10 -8.46263e-10 7.73091 5.47488 0.417314 -1.96289e-09 4.22298e-10 -8.4626e-10 2.90554 0.965183 0.102902 -1.96288e-09 4.22298e-10 -8.46257e-10 10.2786 0.731801 0.0259123 -1.96289e-09 4.22299e-10 -8.4625e-10 2.22167 -0.733487 -0.20892 2.35587e-13 -2.3715e-13 8.80865e-13 -107.275 52.6645 43.1424 18.5481 -11.2884 -35.2616 0.145265 -10.8014 1.53646 6.55034e-10 2.92017e-09 -1.06966e-09 1.14632e-09 5.05944e-09 -1.85244e-09 6.55024e-10 2.92017e-09 -1.06964e-09 -7.73091 5.47488 -0.417314 6.55033e-10 2.92017e-09 -1.06965e-09 -2.90554 0.965183 -0.102902 6.55017e-10 2.92017e-09 -1.06965e-09 -10.2786 0.731801 -0.0259123 6.55031e-10 2.92017e-09 -1.06965e-09 -2.22167 -0.733487 0.20892 -2.03217e-16 0.0 -3.88251e-19 18.4166 -35.7755 4.53145 -0.0943166 29.0831 0.660743 -22.7473 -29.3785 -37.0341 2.03217e-16 0.0 3.88251e-19 12.7853 -25.1929 35.3185 0.967548 54.5583 -0.400249 -20.0402 29.4742 41.4798
1.19422 80.6603 96.5927 -177.401 -29.6226 -159.09 6.0328 -21.5098 4.21016 0.63621 -3.62441 0.214923 -2.95962 2.94479 0.10396 -2.79355 12.1137 -2.03678 -0.0 0.0 0.0 -0.0 0.0 0.0 1.64789e-13 -1.91514e-13 8.83079e-13 126.607 68.3241 -60.4348 -17.0497 -9.69978 31.9225 -2.21502 -38.2997 -6.37255 -1.92769e-09 3.88303e-10 -5.56153e-10 -3.29382e-09 6.40956e-10 -1.03049e-09 -1.92769e-09 3.88306e-10 -5.56158e-10 7.73091 5.47488 0.417314 -1.9277e-09 3.88306e-10 -5.56156e-10 2.90554 0.965183 0.102902 -1.92768e-09 3.88307e-10 -5.56154e-10 10.2786 0.731801 0.0259123 -1.9277e-09 3.88308e-10 -5.56148e-10 2.22167 -0.733487 -0.20892 1.64596e-13 -1.91511e-13 8.82753e-13 -107.289 52.6477 43.1729 18.59 -11.3356 -35.3575 0.144515 -10.7736 1.53241 1.62909e-09 3.50974e-09 -1.27202e-09 2.8318e-09 6.08172e-09 -2.19662e-09 1.62908e-09 3.50974e-09 -1.272e-09 -7.73091 5.47488 -0.417314 1.62908e-09 3.50974e-09 -1.27201e-09 -2.90554 0.965183 -0.102902 1.62907e-09 3.50974e-09 -1.27201e-09 -10.2786 0.731801 -0.0259123 1.62908e-09 3.50974e-09 -1.27201e-09 -2.22167 -0.733487 0.20892 -2.03217e-16 0.0 -3.88251e-19 18.3572 -35.577 4.37682 -0.0948056 29.0992 0.660998 -22.6671 -29.4399 -36.8776 2.03217e-16 0.0 3.88251e-19 12.7764 -24.9081 35.3642 0.96318 54.5122 -0.407004 -19.7384 29.1778 41.3348
